<svg xmlns="http://www.w3.org/2000/svg" version="1.1" xmlns:xlink="http://www.w3.org/1999/xlink" xmlns:svgjs="http://svgjs.dev/svgjs" width="1000" height="1000" viewBox="0 0 1000 1000"><rect width="1000" height="1000" fill="#000000"></rect><g transform="matrix(0.7,0,0,0.7,150.11896067415722,420.4582143776241)"><svg viewBox="0 0 356 81" data-background-color="#ffffff" preserveAspectRatio="xMidYMid meet" height="227" width="1000" xmlns="http://www.w3.org/2000/svg" xmlns:xlink="http://www.w3.org/1999/xlink"><g id="tight-bounds" transform="matrix(1,0,0,1,-0.06049999999996203,0.046788139788873195)"><svg viewBox="0 0 356.12052 80.90642372042228" height="80.90642372042228" width="356.12052"><g><svg viewBox="0 0 356.12052 80.90642372042228" height="80.90642372042228" width="356.12052"><g><svg viewBox="0 0 356.12052 80.90642372042228" height="80.90642372042228" width="356.12052"><g><path d="M0 80.906v-80.906h356.121v80.906z" fill="#ffffff" stroke="transparent" stroke-width="0" rx="0%" data-fill-palette-color="tertiary"></path><path d="M3.283 77.623v-74.34h349.554v74.34z" fill="#000000" stroke="transparent" stroke-width="0" rx="0%" data-fill-palette-color="quaternary"></path><path d="M9.85 71.057v-61.207h336.421v61.207z" fill="#ffffff" stroke="transparent" stroke-width="0" data-fill-palette-color="tertiary"></path></g><g transform="matrix(1,0,0,1,19.69974,19.69974)" id="textblocktransform"><svg viewBox="0 0 316.72104 41.50694372042228" height="41.50694372042228" width="316.72104" id="textblock"><g><svg viewBox="0 0 316.72104 41.50694372042228" height="41.50694372042228" width="316.72104"><g transform="matrix(1,0,0,1,0,0)"><svg width="316.72104" viewBox="1.6500000953674316 -35.5 274.6700134277344 36" height="41.50694372042228" data-palette-color="#ffffff"><path d="M9.85 0.5Q5.85 0.5 3.75-1.78 1.65-4.05 1.65-8.3L1.65-8.3 1.65-26.7Q1.65-30.95 3.75-33.23 5.85-35.5 9.85-35.5L9.85-35.5Q13.85-35.5 15.95-33.23 18.05-30.95 18.05-26.7L18.05-26.7 18.05-23.7 12.85-23.7 12.85-27.05Q12.85-30.5 10-30.5L10-30.5Q7.15-30.5 7.15-27.05L7.15-27.05 7.15-7.9Q7.15-4.5 10-4.5L10-4.5Q12.85-4.5 12.85-7.9L12.85-7.9 12.85-14.75 10.1-14.75 10.1-19.75 18.05-19.75 18.05-8.3Q18.05-4.05 15.95-1.78 13.85 0.5 9.85 0.5L9.85 0.5ZM29.55 0.5Q25.5 0.5 23.35-1.8 21.2-4.1 21.2-8.3L21.2-8.3 21.2-26.7Q21.2-30.9 23.35-33.2 25.5-35.5 29.55-35.5L29.55-35.5Q33.6-35.5 35.75-33.2 37.9-30.9 37.9-26.7L37.9-26.7 37.9-8.3Q37.9-4.1 35.75-1.8 33.6 0.5 29.55 0.5L29.55 0.5ZM29.55-4.5Q32.4-4.5 32.4-7.95L32.4-7.95 32.4-27.05Q32.4-30.5 29.55-30.5L29.55-30.5Q26.7-30.5 26.7-27.05L26.7-27.05 26.7-7.95Q26.7-4.5 29.55-4.5L29.55-4.5ZM45.7 0L45.7-30 39.95-30 39.95-35 56.95-35 56.95-30 51.2-30 51.2 0 45.7 0ZM59.59 0L59.59-35 65.09-35 65.09-20.75 70.99-20.75 70.99-35 76.49-35 76.49 0 70.99 0 70.99-15.75 65.09-15.75 65.09 0 59.59 0ZM79.14 0L84.84-35 92.29-35 97.99 0 92.49 0 91.49-6.95 91.49-6.85 85.24-6.85 84.24 0 79.14 0ZM85.89-11.6L90.84-11.6 88.39-28.9 88.29-28.9 85.89-11.6ZM100.64 0L100.64-35 108.49-35 111.99-9.95 112.09-9.95 115.59-35 123.44-35 123.44 0 118.24 0 118.24-26.5 118.14-26.5 114.14 0 109.54 0 105.54-26.5 105.44-26.5 105.44 0 100.64 0ZM143.28 0.5Q139.33 0.5 137.26-1.75 135.18-4 135.18-8.1L135.18-8.1 135.18-26.9Q135.18-31 137.26-33.25 139.33-35.5 143.28-35.5L143.28-35.5Q147.23-35.5 149.31-33.25 151.38-31 151.38-26.9L151.38-26.9 151.38-23.2 146.18-23.2 146.18-27.25Q146.18-30.5 143.43-30.5L143.43-30.5Q140.68-30.5 140.68-27.25L140.68-27.25 140.68-7.7Q140.68-4.5 143.43-4.5L143.43-4.5Q146.18-4.5 146.18-7.7L146.18-7.7 146.18-13.05 151.38-13.05 151.38-8.1Q151.38-4 149.31-1.75 147.23 0.5 143.28 0.5L143.28 0.5ZM153.23 0L158.93-35 166.38-35 172.08 0 166.58 0 165.58-6.95 165.58-6.85 159.33-6.85 158.33 0 153.23 0ZM159.98-11.6L164.93-11.6 162.48-28.9 162.38-28.9 159.98-11.6ZM174.73 0L174.73-35 182.88-35Q187.13-35 189.08-33.02 191.03-31.05 191.03-26.95L191.03-26.95 191.03-24.8Q191.03-19.35 187.43-17.9L187.43-17.9 187.43-17.8Q189.43-17.2 190.25-15.35 191.08-13.5 191.08-10.4L191.08-10.4 191.08-4.25Q191.08-2.75 191.18-1.83 191.28-0.9 191.68 0L191.68 0 186.08 0Q185.78-0.85 185.68-1.6 185.58-2.35 185.58-4.3L185.58-4.3 185.58-10.7Q185.58-13.1 184.8-14.05 184.03-15 182.13-15L182.13-15 180.23-15 180.23 0 174.73 0ZM180.23-20L182.23-20Q183.88-20 184.7-20.85 185.53-21.7 185.53-23.7L185.53-23.7 185.53-26.4Q185.53-28.3 184.85-29.15 184.18-30 182.73-30L182.73-30 180.23-30 180.23-20ZM210.62 0.5Q206.67 0.5 204.6-1.75 202.52-4 202.52-8.1L202.52-8.1 202.52-26.9Q202.52-31 204.6-33.25 206.67-35.5 210.62-35.5L210.62-35.5Q214.57-35.5 216.65-33.25 218.72-31 218.72-26.9L218.72-26.9 218.72-23.2 213.52-23.2 213.52-27.25Q213.52-30.5 210.77-30.5L210.77-30.5Q208.02-30.5 208.02-27.25L208.02-27.25 208.02-7.7Q208.02-4.5 210.77-4.5L210.77-4.5Q213.52-4.5 213.52-7.7L213.52-7.7 213.52-13.05 218.72-13.05 218.72-8.1Q218.72-4 216.65-1.75 214.57 0.5 210.62 0.5L210.62 0.5ZM222.02 0L222.02-35 227.52-35 227.52-5 236.57-5 236.57 0 222.02 0ZM247.22 0.5Q243.22 0.5 241.12-1.78 239.02-4.05 239.02-8.3L239.02-8.3 239.02-35 244.52-35 244.52-7.9Q244.52-6.1 245.24-5.3 245.97-4.5 247.32-4.5L247.32-4.5Q248.67-4.5 249.39-5.3 250.12-6.1 250.12-7.9L250.12-7.9 250.12-35 255.42-35 255.42-8.3Q255.42-4.05 253.32-1.78 251.22 0.5 247.22 0.5L247.22 0.5ZM259.32 0L259.32-35 267.62-35Q271.87-35 273.82-33.02 275.77-31.05 275.77-26.95L275.77-26.95 275.77-25.55Q275.77-22.85 274.89-21.15 274.02-19.45 272.22-18.7L272.22-18.7 272.22-18.6Q276.32-17.2 276.32-11.3L276.32-11.3 276.32-8.3Q276.32-4.25 274.19-2.13 272.07 0 267.97 0L267.97 0 259.32 0ZM264.82-20.75L266.97-20.75Q268.62-20.75 269.44-21.6 270.27-22.45 270.27-24.45L270.27-24.45 270.27-26.4Q270.27-28.3 269.59-29.15 268.92-30 267.47-30L267.47-30 264.82-30 264.82-20.75ZM264.82-5L267.97-5Q269.42-5 270.12-5.78 270.82-6.55 270.82-8.45L270.82-8.45 270.82-11.5Q270.82-13.9 269.99-14.83 269.17-15.75 267.27-15.75L267.27-15.75 264.82-15.75 264.82-5Z" opacity="1" transform="matrix(1,0,0,1,0,0)" fill="#000000" class="undefined-text-0" data-fill-palette-color="quaternary" id="text-0"></path></svg></g></svg></g></svg></g></svg></g><g></g></svg></g><defs></defs></svg><rect width="356.12052" height="80.90642372042228" fill="none" stroke="none" visibility="hidden"></rect></g></svg></g></svg>